# xmcd
#
# Track frame offsets:
#	150
#	12131
#	23358
#	36517
#	46388
#	56455
#	67466
#	80358
#	91847
#	104830
#	117018
#	128323
#	138796
#	150655
#	162028
#	171431
#	184462
#	197603
#	210671
#	223209
#	234890
#	247334
#	257292
#	269477
#	278716
#	288696
#	299734
#	313701
#	327558
#	340144
#	353503
#
# Disc length: 4841 seconds
#
# Revision: 2
# Processed by: cddbd v1.5.2PL0 Copyright (c) Steve Scherf et al.
# Submitted via: EZCDAudioConverter 7.1.4.1
#
DISCID=d512e71f
DTITLE=Connie Smith - Just for What I am [CD5]
DYEAR=2012
DGENRE=USA Country
TTITLE0=Connie Smith - If I Could Just Get Over You
TTITLE1=Connie Smith - How Sweet it is
TTITLE2=Connie Smith - I Know You're Going Away
TTITLE3=Connie Smith - Love is the Look You're Looking for
TTITLE4=Connie Smith - Ain't We Havin' Us a Good Time
TTITLE5=Connie Smith - Just for What I am
TTITLE6=Connie Smith - If God is Dead (Who's That Living in My Soul)
TTITLE7=Connie Smith - Way Up on the Mountain
TTITLE8=Connie Smith - You're Getting Heavy on My Mind
TTITLE9=Connie Smith - Don't Tell Him That I'm Still Crying
TTITLE10=Connie Smith - Dallas Frazier - The Laying on of Hands
TTITLE11=Connie Smith - Everything's Found a Home with Me (But You)
TTITLE12=Connie Smith - Dallas Frazier - If That Ain't Strong Enough
TTITLE13=Connie Smith - If it Ain't Love (Let's Leave it Alone)
TTITLE14=Connie Smith - For Goodness Sake, it's Love
TTITLE15=Connie Smith - My Ecstasy
TTITLE16=Connie Smith - Dallas Frazier - Bringin' It Home
TTITLE17=Connie Smith - Living Without You (Is Too Much to Live with)
TTITLE18=Connie Smith - Dream Painter
TTITLE19=Connie Smith - Here Comes My Baby
TTITLE20=Connie Smith - Just a Little Bit of You
TTITLE21=Connie Smith - Turn Your Radio on
TTITLE22=Connie Smith - If You Leave Me Tonight I'll Cry
TTITLE23=Connie Smith - I Ain't Never
TTITLE24=Connie Smith - What Ain't to Be, Just Might Happen
TTITLE25=Connie Smith - All the Praises
TTITLE26=Connie Smith - He's All I Got
TTITLE27=Connie Smith - Country Girl
TTITLE28=Connie Smith - Until My Dreams Come True
TTITLE29=Connie Smith - Someone to Give My Love to
TTITLE30=Weldon Myrick - Connie's Song
EXTD=
EXTT0=
EXTT1=
EXTT2=
EXTT3=
EXTT4=
EXTT5=
EXTT6=
EXTT7=
EXTT8=
EXTT9=
EXTT10=
EXTT11=
EXTT12=
EXTT13=
EXTT14=
EXTT15=
EXTT16=
EXTT17=
EXTT18=
EXTT19=
EXTT20=
EXTT21=
EXTT22=
EXTT23=
EXTT24=
EXTT25=
EXTT26=
EXTT27=
EXTT28=
EXTT29=
EXTT30=
PLAYORDER=
